<?xml version="1.0" standalone="no"?>
<!DOCTYPE svg PUBLIC "-//W3C//DTD SVG 20010904//EN"
 "http://www.w3.org/TR/2001/REC-SVG-20010904/DTD/svg10.dtd">
<svg version="1.0" xmlns="http://www.w3.org/2000/svg"
 width="512.000000pt" height="512.000000pt" viewBox="0 0 512.000000 512.000000"
 preserveAspectRatio="xMidYMid meet">
<metadata>
Created by potrace 1.11, written by Peter Selinger 2001-2013
</metadata>
<g transform="translate(0.000000,512.000000) scale(0.100000,-0.100000)"
fill="#000000" stroke="none">
<path d="M3545 5078 c40 -131 105 -301 170 -443 39 -85 213 -433 225 -450 4
-5 10 -18 13 -28 6 -16 3 -18 -24 -12 -72 16 -367 26 -411 14 -15 -4 -30 -3
-34 2 -3 5 -9 7 -14 4 -5 -3 -29 -8 -52 -10 -24 -3 -54 -7 -68 -10 -14 -2 -41
-7 -60 -11 -75 -13 -85 -15 -100 -18 -8 -2 -22 -6 -30 -9 -8 -3 -40 -13 -70
-22 -30 -9 -63 -20 -72 -26 -10 -5 -23 -9 -29 -9 -6 0 -40 -13 -76 -30 -35
-16 -68 -30 -73 -30 -5 0 -15 -6 -22 -13 -7 -6 -37 -23 -65 -36 -29 -14 -53
-28 -53 -33 0 -4 -6 -8 -12 -8 -7 0 -26 -11 -43 -24 -28 -23 -32 -23 -64 -10
-18 8 -43 16 -55 18 -11 3 -43 13 -71 24 -50 19 -259 77 -305 86 -14 2 -49 10
-78 16 -30 7 -61 13 -70 15 -9 2 -17 4 -17 5 0 1 -11 3 -25 4 -14 2 -45 6 -70
10 -248 35 -580 40 -790 11 -19 -3 -55 -8 -80 -10 -25 -3 -52 -8 -60 -10 -8
-2 -31 -7 -50 -10 -103 -17 -274 -65 -402 -112 -105 -39 -99 -47 115 -151 226
-111 206 -102 427 -178 102 -35 181 -63 175 -63 -5 0 -73 18 -150 40 -77 22
-147 42 -155 44 -31 7 -156 37 -170 40 -8 2 -35 8 -60 15 -25 7 -54 14 -65 17
-34 7 -59 13 -80 17 -11 2 -42 10 -70 16 -27 6 -59 13 -70 14 -11 2 -33 6 -50
10 -16 3 -41 8 -55 11 -14 3 -47 9 -75 14 -93 19 -130 24 -175 25 l-45 1 1
-190 c1 -265 22 -666 40 -780 2 -16 6 -59 9 -95 2 -36 6 -81 9 -100 3 -19 7
-59 11 -89 3 -29 10 -85 15 -125 17 -123 20 -140 24 -178 9 -67 20 -78 84 -79
31 -1 71 -3 87 -4 33 -3 207 -15 295 -20 30 -2 96 -7 145 -10 50 -4 122 -8
160 -10 224 -13 275 -16 325 -20 30 -3 96 -7 145 -10 50 -3 117 -7 150 -10 75
-7 274 -18 298 -17 9 0 17 -3 17 -8 0 -7 -72 -85 -237 -257 -24 -24 -43 -45
-43 -46 0 -1 -59 -63 -130 -137 -71 -74 -130 -141 -130 -148 0 -8 58 -73 129
-145 329 -336 411 -421 411 -427 0 -7 -94 -90 -117 -103 -7 -4 -23 -18 -36
-30 -12 -12 -44 -40 -71 -62 -97 -80 -119 -102 -113 -116 3 -8 67 -88 143
-179 134 -162 156 -188 269 -322 l56 -68 1410 0 1410 0 -6 23 c-4 12 -18 42
-31 66 -13 24 -24 51 -24 60 0 9 -4 21 -9 26 -13 14 -103 300 -114 365 -3 14
-8 37 -12 52 -6 24 -4 28 22 33 86 18 165 59 223 113 33 32 60 61 60 65 0 4
14 26 30 49 17 22 30 49 30 59 0 10 4 20 9 23 15 10 34 99 36 171 4 175 -99
345 -321 525 l-77 64 54 45 c91 76 243 231 313 319 119 149 165 267 161 417
-3 102 -18 151 -68 221 -19 27 -40 64 -48 82 -8 17 -17 32 -21 32 -5 0 -7 3
-6 8 1 4 -8 29 -20 55 -12 27 -22 54 -22 61 0 7 -5 17 -12 24 -7 7 -9 12 -5
12 3 0 2 11 -3 25 -5 14 -12 69 -15 123 -5 101 -6 110 -29 227 -40 201 -139
404 -260 535 -28 31 -32 42 -34 100 -3 65 -6 95 -15 160 -3 19 -9 58 -13 85
-4 28 -8 55 -10 60 -1 6 -4 26 -7 45 -34 207 -130 515 -221 713 l-36 77 -369
0 -369 0 13 -42z m-2231 -1573 c34 -9 75 -20 91 -25 33 -10 73 -18 120 -25 17
-3 53 -9 80 -14 28 -5 73 -13 100 -17 28 -4 57 -9 65 -10 8 -2 40 -6 70 -9 31
-3 64 -7 75 -9 11 -2 65 -7 120 -11 55 -4 109 -9 120 -10 11 -1 33 -3 48 -4
27 -1 27 -2 21 -48 -4 -27 -7 -67 -8 -90 -1 -23 -4 -44 -7 -48 -4 -3 -58 14
-120 39 -63 25 -172 66 -244 91 -71 25 -139 50 -150 55 -11 5 -101 34 -200 65
-230 73 -262 83 -251 84 5 1 37 -6 70 -14z m991 -2002 c-3 -60 -7 -124 -10
-143 -3 -19 -7 -60 -10 -90 -3 -30 -7 -66 -10 -80 -7 -33 -11 -56 -20 -110 -7
-43 -24 -87 -25 -64 0 6 -8 20 -17 31 -34 38 -68 81 -83 103 -8 12 -39 52 -67
89 -29 36 -53 69 -53 72 0 9 283 296 293 298 4 0 5 -47 2 -106z m-184 -1002
c-20 -77 -41 -143 -46 -148 -6 -4 -7 -4 -4 0 4 4 -13 29 -37 55 -24 26 -46 55
-50 65 -3 9 -10 17 -15 17 -5 0 -9 6 -9 13 0 10 139 110 180 129 8 4 15 7 16
7 0 1 -15 -62 -35 -138z"/>
</g>
</svg>
