<svg width="19" height="29" viewBox="0 0 19 29" fill="none" xmlns="http://www.w3.org/2000/svg">
    <path fillRule="evenodd" clipRule="evenodd" d="M9.79863 0C4.9115 0 0.949707 3.96179 0.949707 8.84891V19.5904C0.949707 24.4775 4.9115 28.4393 9.79863 28.4393C14.6858 28.4393 18.6476 24.4775 18.6476 19.5904V8.84892C18.6476 3.9618 14.6858 0 9.79863 0ZM9.79856 1.5346C5.81541 1.5346 2.58643 4.76359 2.58643 8.74674V19.6928C2.58643 23.6759 5.81541 26.9049 9.79856 26.9049C13.7817 26.9049 17.0107 23.6759 17.0107 19.6928V8.74673C17.0107 4.76358 13.7817 1.5346 9.79856 1.5346Z" fill="#333333" />
    <path d="M8.12514 8.07258C8.12514 7.24697 8.79443 6.57769 9.62003 6.57769C10.4456 6.57769 11.1149 7.24697 11.1149 8.07258C11.1149 8.89819 10.4456 9.56748 9.62003 9.56748C8.79443 9.56748 8.12514 8.89819 8.12514 8.07258Z" fill="#333333" />
    <path d="M9.91904 22.0007L11.2025 20.7172L11.6253 21.14L9.83147 22.9339C9.71471 23.0506 9.52541 23.0506 9.40865 22.9339L7.61477 21.14L8.0376 20.7172L9.32108 22.0007L9.32108 12.5572H9.91904L9.91904 22.0007Z" fill="#333333" />
</svg>